# xmcd
#
# Track frame offsets:
#	150
#	13475
#	25430
#	34460
#	42877
#	55810
#	67675
#	77805
#	90282
#	101515
#	110737
#	125775
#	133985
#	145202
#	155827
#	162290
#	169670
#	177132
#	185942
#	193767
#	202545
#	210715
#	221572
#	229902
#
# Disc length: 3198 seconds
#
# Revision: 0
# Processed by: cddbd v1.4PL0 Copyright (c) Steve Scherf et al.
# Submitted via: audiograbber 1.81.03
#
DISCID=630c7c18
DTITLE=Tex Ritter - Have I Stayed Away Too Long - BCD 16239
DYEAR=2003
DGENRE=Country
TTITLE0=Born To Be Blue - 1947
TTITLE1=I Learned My Lesson Too Late - 1947
TTITLE2=Move It On Over - 1948
TTITLE3=You've Got To Come And Get Me - 1948
TTITLE4=Honey Chile - 1948
TTITLE5=I'm Beginning To Believe You - 1948
TTITLE6=You Drove Me To Another's Arms (And Now I'm Happy There) - 1948
TTITLE7=Never Mind My Tears - 1948
TTITLE8=I've Had Enough Of Your Two-Timin' (You've Had Enough Of My Bankroll) -
TTITLE8=1948
TTITLE9=Billy Boy - 1948
TTITLE10=Cowboy Jack - 1948
TTITLE11=Have I Stayed Away Too Long (Closing Theme) - 1946
TTITLE12=(Take Me Back To My) Boots And Saddle - 1952
TTITLE13=Lonely River - 1952
TTITLE14=I'm An Old Cowhand - 1952
TTITLE15=Dear John - 1952
TTITLE16=Oklahoma Hills - 1952
TTITLE17=My Adobe Hacienda - 1952
TTITLE18=Blue Shadows On The Trail - 1952
TTITLE19=Blue Canadian Rockies - 1952
TTITLE20=Dallas Darling - 1952
TTITLE21=The Riddle Song - 1951
TTITLE22=Love You Big As Texas - 1952
TTITLE23=Cherokee Waltz - 1952
EXTD=Bear Family - BCD 16239 - CD 4
EXTT0=
EXTT1=
EXTT2=
EXTT3=
EXTT4=
EXTT5=
EXTT6=
EXTT7=
EXTT8=
EXTT9=
EXTT10=
EXTT11=
EXTT12=
EXTT13=
EXTT14=
EXTT15=
EXTT16=
EXTT17=
EXTT18=
EXTT19=
EXTT20=
EXTT21=
EXTT22=
EXTT23=
PLAYORDER=
